<mxfile host="app.diagrams.net" modified="2024-01-01T00:00:00.000Z" agent="5.0" etag="xxx" version="22.1.16">
  <diagram name="Hadoop-RPC-Ecosystem" id="hadoop-rpc-ecosystem">
    <mxGraphModel dx="1422" dy="794" grid="1" gridSize="10" guides="1" tooltips="1" connect="1" arrows="1" fold="1" page="1" pageScale="1" pageWidth="1169" pageHeight="827" math="0" shadow="0">
      <root>
        <mxCell id="0" />
        <mxCell id="1" parent="0" />
        
        <!-- 应用层 -->
        <mxCell id="app-layer" value="应用层" style="rounded=1;whiteSpace=wrap;html=1;fillColor=#e1d5e7;strokeColor=#9673a6;fontSize=14;fontStyle=1;" vertex="1" parent="1">
          <mxGeometry x="80" y="40" width="1000" height="80" as="geometry" />
        </mxCell>
        
        <mxCell id="spark" value="Spark" style="rounded=1;whiteSpace=wrap;html=1;fillColor=#fff2cc;strokeColor=#d6b656;" vertex="1" parent="1">
          <mxGeometry x="120" y="60" width="80" height="40" as="geometry" />
        </mxCell>
        
        <mxCell id="hive" value="Hive" style="rounded=1;whiteSpace=wrap;html=1;fillColor=#fff2cc;strokeColor=#d6b656;" vertex="1" parent="1">
          <mxGeometry x="220" y="60" width="80" height="40" as="geometry" />
        </mxCell>
        
        <mxCell id="hbase" value="HBase" style="rounded=1;whiteSpace=wrap;html=1;fillColor=#fff2cc;strokeColor=#d6b656;" vertex="1" parent="1">
          <mxGeometry x="320" y="60" width="80" height="40" as="geometry" />
        </mxCell>
        
        <mxCell id="mapreduce" value="MapReduce" style="rounded=1;whiteSpace=wrap;html=1;fillColor=#fff2cc;strokeColor=#d6b656;" vertex="1" parent="1">
          <mxGeometry x="420" y="60" width="80" height="40" as="geometry" />
        </mxCell>
        
        <!-- YARN层 -->
        <mxCell id="yarn-layer" value="YARN 资源管理层" style="rounded=1;whiteSpace=wrap;html=1;fillColor=#d5e8d4;strokeColor=#82b366;fontSize=14;fontStyle=1;" vertex="1" parent="1">
          <mxGeometry x="80" y="160" width="1000" height="200" as="geometry" />
        </mxCell>
        
        <mxCell id="resource-manager" value="ResourceManager&#xa;(RM)" style="rounded=1;whiteSpace=wrap;html=1;fillColor=#f8cecc;strokeColor=#b85450;fontSize=12;fontStyle=1;" vertex="1" parent="1">
          <mxGeometry x="500" y="200" width="120" height="60" as="geometry" />
        </mxCell>
        
        <mxCell id="node-manager1" value="NodeManager&#xa;(NM1)" style="rounded=1;whiteSpace=wrap;html=1;fillColor=#dae8fc;strokeColor=#6c8ebf;" vertex="1" parent="1">
          <mxGeometry x="200" y="280" width="100" height="60" as="geometry" />
        </mxCell>
        
        <mxCell id="node-manager2" value="NodeManager&#xa;(NM2)" style="rounded=1;whiteSpace=wrap;html=1;fillColor=#dae8fc;strokeColor=#6c8ebf;" vertex="1" parent="1">
          <mxGeometry x="350" y="280" width="100" height="60" as="geometry" />
        </mxCell>
        
        <mxCell id="node-manager3" value="NodeManager&#xa;(NM3)" style="rounded=1;whiteSpace=wrap;html=1;fillColor=#dae8fc;strokeColor=#6c8ebf;" vertex="1" parent="1">
          <mxGeometry x="700" y="280" width="100" height="60" as="geometry" />
        </mxCell>
        
        <mxCell id="app-master" value="ApplicationMaster&#xa;(AM)" style="rounded=1;whiteSpace=wrap;html=1;fillColor=#ffe6cc;strokeColor=#d79b00;" vertex="1" parent="1">
          <mxGeometry x="500" y="280" width="120" height="60" as="geometry" />
        </mxCell>
        
        <!-- HDFS层 -->
        <mxCell id="hdfs-layer" value="HDFS 分布式文件系统层" style="rounded=1;whiteSpace=wrap;html=1;fillColor=#f0f0f0;strokeColor=#666666;fontSize=14;fontStyle=1;" vertex="1" parent="1">
          <mxGeometry x="80" y="400" width="1000" height="200" as="geometry" />
        </mxCell>
        
        <mxCell id="namenode" value="NameNode&#xa;(NN)" style="rounded=1;whiteSpace=wrap;html=1;fillColor=#f8cecc;strokeColor=#b85450;fontSize=12;fontStyle=1;" vertex="1" parent="1">
          <mxGeometry x="500" y="440" width="120" height="60" as="geometry" />
        </mxCell>
        
        <mxCell id="datanode1" value="DataNode&#xa;(DN1)" style="rounded=1;whiteSpace=wrap;html=1;fillColor=#dae8fc;strokeColor=#6c8ebf;" vertex="1" parent="1">
          <mxGeometry x="200" y="520" width="100" height="60" as="geometry" />
        </mxCell>
        
        <mxCell id="datanode2" value="DataNode&#xa;(DN2)" style="rounded=1;whiteSpace=wrap;html=1;fillColor=#dae8fc;strokeColor=#6c8ebf;" vertex="1" parent="1">
          <mxGeometry x="350" y="520" width="100" height="60" as="geometry" />
        </mxCell>
        
        <mxCell id="datanode3" value="DataNode&#xa;(DN3)" style="rounded=1;whiteSpace=wrap;html=1;fillColor=#dae8fc;strokeColor=#6c8ebf;" vertex="1" parent="1">
          <mxGeometry x="700" y="520" width="100" height="60" as="geometry" />
        </mxCell>
        
        <mxCell id="hdfs-client" value="HDFS Client" style="rounded=1;whiteSpace=wrap;html=1;fillColor=#ffe6cc;strokeColor=#d79b00;" vertex="1" parent="1">
          <mxGeometry x="120" y="440" width="100" height="60" as="geometry" />
        </mxCell>
        
        <!-- RPC连接线 -->
        <!-- 应用层到YARN -->
        <mxCell id="spark-to-rm" value="ApplicationClientProtocol" style="endArrow=classic;html=1;strokeColor=#d79b00;strokeWidth=2;dashed=1;" edge="1" parent="1" source="spark" target="resource-manager">
          <mxGeometry width="50" height="50" relative="1" as="geometry">
            <mxPoint x="400" y="300" as="sourcePoint" />
            <mxPoint x="450" y="250" as="targetPoint" />
          </mxGeometry>
        </mxCell>
        
        <!-- YARN内部RPC -->
        <mxCell id="am-to-rm" value="ApplicationMasterProtocol" style="endArrow=classic;html=1;strokeColor=#82b366;strokeWidth=2;" edge="1" parent="1" source="app-master" target="resource-manager">
          <mxGeometry width="50" height="50" relative="1" as="geometry">
            <mxPoint x="400" y="300" as="sourcePoint" />
            <mxPoint x="450" y="250" as="targetPoint" />
          </mxGeometry>
        </mxCell>
        
        <mxCell id="nm1-to-rm" value="ResourceTrackerProtocol" style="endArrow=classic;html=1;strokeColor=#6c8ebf;strokeWidth=2;" edge="1" parent="1" source="node-manager1" target="resource-manager">
          <mxGeometry width="50" height="50" relative="1" as="geometry">
            <mxPoint x="400" y="300" as="sourcePoint" />
            <mxPoint x="450" y="250" as="targetPoint" />
          </mxGeometry>
        </mxCell>
        
        <mxCell id="am-to-nm1" value="ContainerManagementProtocol" style="endArrow=classic;html=1;strokeColor=#d79b00;strokeWidth=2;" edge="1" parent="1" source="app-master" target="node-manager1">
          <mxGeometry width="50" height="50" relative="1" as="geometry">
            <mxPoint x="400" y="300" as="sourcePoint" />
            <mxPoint x="450" y="250" as="targetPoint" />
          </mxGeometry>
        </mxCell>
        
        <!-- HDFS内部RPC -->
        <mxCell id="client-to-nn" value="ClientProtocol" style="endArrow=classic;html=1;strokeColor=#d79b00;strokeWidth=2;" edge="1" parent="1" source="hdfs-client" target="namenode">
          <mxGeometry width="50" height="50" relative="1" as="geometry">
            <mxPoint x="400" y="500" as="sourcePoint" />
            <mxPoint x="450" y="450" as="targetPoint" />
          </mxGeometry>
        </mxCell>
        
        <mxCell id="dn1-to-nn" value="DatanodeProtocol" style="endArrow=classic;html=1;strokeColor=#6c8ebf;strokeWidth=2;" edge="1" parent="1" source="datanode1" target="namenode">
          <mxGeometry width="50" height="50" relative="1" as="geometry">
            <mxPoint x="400" y="500" as="sourcePoint" />
            <mxPoint x="450" y="450" as="targetPoint" />
          </mxGeometry>
        </mxCell>
        
        <mxCell id="dn2-to-nn" value="DatanodeProtocol" style="endArrow=classic;html=1;strokeColor=#6c8ebf;strokeWidth=2;" edge="1" parent="1" source="datanode2" target="namenode">
          <mxGeometry width="50" height="50" relative="1" as="geometry">
            <mxPoint x="400" y="500" as="sourcePoint" />
            <mxPoint x="450" y="450" as="targetPoint" />
          </mxGeometry>
        </mxCell>
        
        <!-- 跨层连接 -->
        <mxCell id="app-to-hdfs" value="ClientProtocol" style="endArrow=classic;html=1;strokeColor=#9673a6;strokeWidth=2;dashed=1;" edge="1" parent="1" source="hive" target="namenode">
          <mxGeometry width="50" height="50" relative="1" as="geometry">
            <mxPoint x="400" y="300" as="sourcePoint" />
            <mxPoint x="450" y="250" as="targetPoint" />
          </mxGeometry>
        </mxCell>
        
        <!-- 图例 -->
        <mxCell id="legend" value="图例" style="rounded=1;whiteSpace=wrap;html=1;fillColor=#f5f5f5;strokeColor=#666666;fontSize=12;fontStyle=1;" vertex="1" parent="1">
          <mxGeometry x="900" y="440" width="160" height="140" as="geometry" />
        </mxCell>
        
        <mxCell id="legend-rpc" value="RPC调用" style="endArrow=classic;html=1;strokeColor=#d79b00;strokeWidth=2;" edge="1" parent="1">
          <mxGeometry width="50" height="50" relative="1" as="geometry">
            <mxPoint x="920" y="470" as="sourcePoint" />
            <mxPoint x="970" y="470" as="targetPoint" />
          </mxGeometry>
        </mxCell>
        
        <mxCell id="legend-heartbeat" value="心跳/汇报" style="endArrow=classic;html=1;strokeColor=#6c8ebf;strokeWidth=2;" edge="1" parent="1">
          <mxGeometry width="50" height="50" relative="1" as="geometry">
            <mxPoint x="920" y="500" as="sourcePoint" />
            <mxPoint x="970" y="500" as="targetPoint" />
          </mxGeometry>
        </mxCell>
        
        <mxCell id="legend-cross" value="跨层调用" style="endArrow=classic;html=1;strokeColor=#9673a6;strokeWidth=2;dashed=1;" edge="1" parent="1">
          <mxGeometry width="50" height="50" relative="1" as="geometry">
            <mxPoint x="920" y="530" as="sourcePoint" />
            <mxPoint x="970" y="530" as="targetPoint" />
          </mxGeometry>
        </mxCell>
        
      </root>
    </mxGraphModel>
  </diagram>
</mxfile>
